<svg width="24" height="24" viewBox="0 0 24 24" fill="none" xmlns="http://www.w3.org/2000/svg">
<path d="M5.28255 15.1821L2.10059 18.3641L5.6361 21.8997L8.8181 18.7177" stroke="#333333" stroke-width="2" stroke-linecap="round" stroke-linejoin="round"/>
<path d="M10.9395 9.52523L18.3641 2.10059L21.8996 5.63613L14.475 13.0607" stroke="#333333" stroke-width="2" stroke-linecap="round" stroke-linejoin="round"/>
<path d="M4.92928 14.8287C4.53875 14.4381 4.53875 13.805 4.92928 13.4144L9.1719 9.17182C9.56245 8.78127 10.1956 8.78127 10.5862 9.17182L14.8288 13.4144C15.2193 13.805 15.2193 14.4381 14.8288 14.8287L10.5862 19.0713C10.1956 19.4618 9.56245 19.4618 9.1719 19.0713L4.92928 14.8287Z" stroke="#333333" stroke-width="2" stroke-linecap="round" stroke-linejoin="round"/>
<path d="M12.7074 11.293L9.17191 14.8285" stroke="#333333" stroke-width="2" stroke-linecap="round" stroke-linejoin="round"/>
<path d="M15.8893 4.5752L19.4248 8.11072" stroke="#333333" stroke-width="2" stroke-linecap="round" stroke-linejoin="round"/>
<path d="M13.4142 7.05029L16.9497 10.5858" stroke="#333333" stroke-width="2" stroke-linecap="round" stroke-linejoin="round"/>
<path d="M7.75771 10.5859L13.4146 16.2428" stroke="#333333" stroke-width="2" stroke-linecap="round" stroke-linejoin="round"/>
</svg>
