<svg width="27" height="31" viewBox="0 0 27 31" fill="none" xmlns="http://www.w3.org/2000/svg">
<g clip-path="url(#clip0_201_86752)">
<path d="M22.6138 16.3516C23.0474 16.6445 23.5864 16.5508 23.8911 16.0938C25.3911 14.0313 26.2817 11.1953 26.2817 8.30083C26.2817 5.4063 25.4028 2.54693 23.8911 0.507862C23.5864 0.0625497 23.0474 -0.0429195 22.6138 0.250049C22.1802 0.543018 22.1099 1.0938 22.4497 1.57427C23.7271 3.39068 24.4653 5.80474 24.4653 8.30083C24.4653 10.8086 23.7036 13.2109 22.4497 15.0273C22.1216 15.5078 22.1802 16.0586 22.6138 16.3516Z" fill="black" fill-opacity="0.85"/>
<path d="M18.2661 13.3047C18.6645 13.5742 19.2153 13.4805 19.5317 13.0352C20.4224 11.8398 20.9614 10.0938 20.9614 8.30082C20.9614 6.50785 20.4224 4.77348 19.5317 3.57817C19.2153 3.12113 18.6645 3.0391 18.2661 3.32035C17.7974 3.64848 17.7153 4.2227 18.0786 4.70317C18.77 5.64067 19.145 6.94145 19.145 8.30082C19.145 9.6602 18.7583 10.9492 18.0786 11.8984C17.7271 12.3906 17.7974 12.9648 18.2661 13.3047Z" fill="black" fill-opacity="0.85"/>
<path d="M7.02783 29.3595C7.52002 29.7696 8.18799 29.8282 8.65674 29.3712L12.2778 25.7501C12.7349 25.2814 12.7114 24.5782 12.2661 24.1212L10.4497 22.3165L13.0981 19.6798C13.5552 19.2345 13.5317 18.5196 13.0864 18.0509L10.6372 15.5899C13.8599 14.0431 15.6763 11.4181 15.6763 8.30084C15.6763 3.97662 12.1724 0.484436 7.84814 0.484436C3.48877 0.484436 0.00830078 3.95319 0.00830078 8.30084C0.00830078 11.4415 1.81299 14.2306 4.66064 15.4845V26.547C4.66064 26.9337 4.77783 27.379 5.11768 27.6837L7.02783 29.3595ZM7.84814 27.5079L6.54736 26.2189V14.1251C3.79346 13.504 1.8833 11.1251 1.8833 8.30084C1.8833 5.01959 4.54346 2.37115 7.84814 2.37115C11.1411 2.37115 13.7895 5.01959 13.7895 8.30084C13.7895 11.1017 11.8677 13.504 8.92627 14.2071V16.5743L11.2231 18.8829L8.73877 21.3321V23.2774L10.4028 24.9181L7.84814 27.5079ZM7.84814 7.94928C8.89111 7.94928 9.74658 7.09381 9.74658 6.03912C9.74658 4.99615 8.89111 4.1524 7.84814 4.1524C6.78174 4.1524 5.94971 4.99615 5.94971 6.03912C5.94971 7.09381 6.79346 7.94928 7.84814 7.94928Z" fill="black" fill-opacity="0.85"/>
</g>
<defs>
<clipPath id="clip0_201_86752">
<rect width="26.2734" height="30.1534" fill="white" transform="translate(0.00830078 0.0854492)"/>
</clipPath>
</defs>
</svg>
