<svg width="136" height="131" viewBox="0 0 136 131" fill="none" xmlns="http://www.w3.org/2000/svg">
<path d="M1.58431 62.0767H136V96.2725H90.6885V96.2666H90.6766C89.4155 96.2547 88.2416 96.696 87.3255 97.4498C86.4124 98.2016 85.7571 99.2678 85.5291 100.506C85.301 101.743 85.535 102.975 86.1219 104.005C86.7059 105.032 87.6428 105.859 88.8216 106.296C90.0084 106.734 91.2625 106.716 92.3749 106.317C93.4863 105.917 94.4639 105.135 95.0964 104.047C95.5336 103.293 96.5003 103.035 97.2557 103.472C98.0112 103.91 98.268 104.876 97.8308 105.631C96.8136 107.382 95.2362 108.64 93.4387 109.286C91.6403 109.932 89.6257 109.966 87.732 109.265C85.8305 108.562 84.3185 107.224 83.3737 105.564C82.4308 103.908 82.0551 101.928 82.4219 99.9363C82.7887 97.9447 83.8476 96.2269 85.3209 95.0129C86.7882 93.8039 88.6689 93.0948 90.6885 93.1116V93.1057H132.832V65.2436H3.16763V93.1057H45.3105V93.1116C47.3301 93.0948 49.2108 93.8029 50.6782 95.0129C52.1514 96.2269 53.2093 97.9437 53.5771 99.9363C53.943 101.928 53.5682 103.908 52.6253 105.564C51.6805 107.224 50.1686 108.561 48.267 109.265C46.3733 109.966 44.3578 109.933 42.5603 109.286C40.7618 108.64 39.1855 107.382 38.1682 105.631C37.731 104.877 37.9888 103.91 38.7433 103.472C39.4987 103.035 40.4654 103.293 40.9026 104.047C41.5351 105.135 42.5127 105.918 43.6241 106.317C44.7365 106.716 45.9916 106.734 47.1774 106.296C48.3572 105.859 49.2941 105.031 49.8781 104.005C50.464 102.975 50.698 101.743 50.47 100.506C50.2419 99.2678 49.5856 98.2026 48.6735 97.4498C47.7584 96.696 46.5835 96.2537 45.3224 96.2666H45.3105V96.2725H0V62.0767H1.58431Z" fill="white"/>
<path fill-rule="evenodd" clip-rule="evenodd" d="M54.0599 48.9332C53.9151 48.8201 53.7773 48.6971 53.6474 48.5682C52.8295 47.747 52.3189 46.6143 52.3189 45.3696C52.3189 44.1248 52.8295 42.9922 53.6474 42.173C54.0024 41.8189 54.4148 41.5223 54.8689 41.2992L50.7832 34.6262L47.213 33.0254C46.0907 32.5226 45.1508 32.349 44.3983 32.4343C43.7311 32.5097 43.2086 32.8003 42.8408 33.2417C42.4571 33.7048 42.2221 34.3465 42.1418 35.1043C42.0149 36.3292 42.2896 37.8447 42.9796 39.4177L48.9153 48.8469C48.9332 48.8756 48.951 48.9034 48.9689 48.9322C49.9058 50.41 50.7386 51.3601 51.7221 51.9235C52.7145 52.4958 53.9052 52.6912 55.554 52.6624L57.9463 52.6197L54.9155 58.4863C54.5744 59.1459 54.8352 59.9641 55.4955 60.3053C56.1558 60.6465 56.9737 60.3857 57.3148 59.7251L61.0148 52.5642L69.5659 52.4105L73.3462 59.7251C73.6873 60.3847 74.5062 60.6455 75.1655 60.3053H75.1665C75.8268 59.9651 76.0876 59.1459 75.7465 58.4863L72.5789 52.3569L78.6593 52.2478C79.6567 52.23 81.1359 52.0137 82.3822 51.5416C83.2576 51.2104 84.0042 50.7581 84.3403 50.1739L85.061 48.9342L91.2476 38.286C91.9733 37.1375 92.1825 36.0782 92.006 35.1935C91.9247 34.777 91.7532 34.3932 91.5103 34.0569C91.2674 33.7187 90.9432 33.4202 90.5615 33.1802C89.5374 32.5325 88.0809 32.2806 86.4709 32.6019L82.7966 33.3359L78.5463 41.5798C78.81 41.7524 79.0549 41.9508 79.276 42.172C80.0949 42.9932 80.6055 44.1258 80.6055 45.3706C80.6055 46.6153 80.0949 47.7479 79.276 48.5672C79.1461 48.6981 79.0073 48.8211 78.8616 48.9352C78.0922 49.5382 77.1246 49.8982 76.0776 49.8982H56.8458C55.7989 49.8962 54.8292 49.5352 54.0599 48.9332Z" fill="white"/>
<path fill-rule="evenodd" clip-rule="evenodd" d="M54.3088 47.9067C54.861 48.4571 55.5956 48.833 56.4096 48.9332H76.5139C77.3279 48.833 78.0615 48.4581 78.6138 47.9057C79.2642 47.256 79.6677 46.3564 79.6677 45.3696C79.6677 44.3817 79.2632 43.4832 78.6148 42.8315C77.9644 42.1839 77.0642 41.7782 76.0777 41.7782H56.8458C55.8594 41.7782 54.9582 42.1829 54.3098 42.8325C53.6604 43.4822 53.2559 44.3817 53.2559 45.3686C53.2559 46.3564 53.6604 47.256 54.3088 47.9067Z" fill="white"/>
<path fill-rule="evenodd" clip-rule="evenodd" d="M77.7166 41.1494L82.0254 32.7924L82.3842 25.2437C82.1523 22.9099 80.672 21.0235 78.483 19.6231C76.1035 18.1006 72.8863 17.1465 69.4946 16.8063C66.093 16.4651 62.5189 16.7398 59.4316 17.6712C55.8019 18.7651 52.8534 20.7706 51.6964 23.7351L51.5764 34.1313L55.7652 40.9719C56.1122 40.8866 56.4741 40.841 56.8469 40.841H76.0787C76.6547 40.842 77.208 40.9511 77.7166 41.1494Z" fill="white"/>
<path d="M118.503 79.2956C118.503 79.6765 118.79 79.9939 119.202 79.9939H119.297V89.1662C119.297 89.5788 119.678 89.8644 119.995 89.8644H126.536C126.948 89.8644 127.235 89.4836 127.235 89.1662V87.5158C127.235 87.135 126.949 86.8176 126.536 86.8176H122.695C122.441 86.8176 122.346 86.7224 122.346 86.4367V80.47C122.346 80.1843 122.441 80.0256 122.79 80.0256H125.552C125.966 80.0256 126.251 79.6448 126.251 79.3274V77.677C126.251 77.2961 125.966 76.9788 125.552 76.9788H122.758C122.473 76.9788 122.346 76.8518 122.346 76.5979V71.0437C122.346 70.8216 122.473 70.6946 122.695 70.6946H126.536C126.948 70.6946 127.235 70.3138 127.235 69.9964V68.346C127.235 67.9651 126.949 67.6478 126.536 67.6478H119.995C119.615 67.6478 119.297 67.9334 119.297 68.346V76.947H119.202C118.79 76.947 118.503 77.3279 118.503 77.6453V79.2956ZM108.045 70.6946C108.045 70.5994 108.076 70.5052 108.235 70.5052H109.917C110.552 70.5052 110.934 70.6946 110.934 71.7747V76.7576C110.934 77.6145 110.521 77.9954 109.917 77.9954H108.298C108.076 77.9954 108.045 77.8367 108.045 77.7415V70.6946ZM108.045 81.2634C108.045 81.1365 108.108 81.073 108.235 81.073H108.807C110.426 81.073 110.838 82.3108 110.87 83.5486C110.87 83.7072 110.902 86.4685 110.87 87.0715V89.1662C110.87 89.5788 111.251 89.8644 111.569 89.8644H113.22C113.601 89.8644 113.982 89.5788 113.982 89.1662V82.9455C113.982 81.8664 113.664 80.3103 113.125 79.6448C113.823 79.1052 113.982 78.2166 113.982 76.947V75.0427V71.0437C113.982 68.6316 112.585 67.6478 110.014 67.6478H105.696C105.315 67.6478 104.997 67.9334 104.997 68.346V78.0261H104.902C104.489 78.0261 104.203 78.407 104.203 78.7244V80.3747C104.203 80.7556 104.488 81.073 104.902 81.073H104.997V89.1662C104.997 89.5788 105.378 89.8644 105.696 89.8644H107.347C107.727 89.8644 108.045 89.5788 108.045 89.1662V81.2634ZM96.6321 68.346V85.7712C96.6321 86.8503 96.188 87.0407 95.5534 87.0407H94.22C93.5854 87.0407 93.2037 86.8503 93.2037 85.7712V68.346C93.2037 67.9334 92.823 67.6478 92.5058 67.6478H90.855C90.4743 67.6478 90.1571 67.9334 90.1571 68.346V86.5012C90.1571 88.9133 91.554 90.0241 94.1258 90.0241H95.7131C98.2848 90.0241 99.6818 88.9133 99.6818 86.5012V68.346C99.6818 67.9334 99.3011 67.6478 98.9828 67.6478H97.3321C96.9504 67.6478 96.6321 67.9334 96.6321 68.346ZM78.9667 70.6629C78.9667 70.6629 79.284 70.6629 79.284 70.9803V89.1672C79.284 89.5798 79.6647 89.8654 79.982 89.8654H81.6327C82.0134 89.8654 82.3307 89.5798 82.3307 89.1672V71.012C82.3307 70.7581 82.4258 70.6311 82.7114 70.6311H84.7746C85.188 70.6311 85.4735 70.2503 85.4735 69.9329V68.346C85.4735 67.9651 85.188 67.6478 84.7746 67.6478H76.6478C76.2343 67.6478 75.9488 68.0604 75.9488 68.3777V69.9646C75.9488 70.3455 76.2343 70.6629 76.6478 70.6629H78.9667ZM68.6033 89.8654H70.254C70.6347 89.8654 70.953 89.5798 70.953 89.1672V68.346C70.953 67.9334 70.5713 67.6478 70.254 67.6478H68.6033C68.2226 67.6478 67.9053 67.9334 67.9053 68.346V89.1672C67.9043 89.5798 68.285 89.8654 68.6033 89.8654ZM59.9847 89.8654H61.5403C62.0172 89.8654 62.271 89.6433 62.271 89.1672V68.346C62.271 67.9334 61.921 67.6478 61.6037 67.6478H59.9213C59.5088 67.6478 59.2223 67.9969 59.2223 68.3777V79.4236C59.2223 79.5823 59.032 79.614 58.9685 79.4236L55.0643 68.2191C54.9364 67.8699 54.5874 67.6478 54.2384 67.6478H52.6828C52.2704 67.6478 51.9521 67.9651 51.9521 68.3777V89.1672C51.9521 89.5163 52.2377 89.8654 52.6194 89.8654H54.3018C54.6825 89.8654 54.9998 89.6115 54.9998 89.1354V77.9626C54.9998 77.804 55.1902 77.7405 55.2536 77.9626L59.1906 89.2941C59.3175 89.6115 59.4444 89.8654 59.8896 89.8654H59.9847ZM40.7003 70.6946C40.7003 70.5994 40.7321 70.5052 40.8907 70.5052H42.5732C43.2077 70.5052 43.5894 70.6946 43.5894 71.7747V76.7576C43.5894 77.6145 43.177 77.9954 42.5732 77.9954H40.9542C40.7321 77.9954 40.7003 77.8367 40.7003 77.7415V70.6946ZM40.7003 81.2634C40.7003 81.1365 40.7638 81.073 40.8907 81.073H41.4628C43.0818 81.073 43.4952 82.3108 43.5269 83.5486C43.5269 83.7072 43.5587 86.4685 43.5269 87.0715V89.1662C43.5269 89.5788 43.9076 89.8644 44.2249 89.8644H45.8756C46.2563 89.8644 46.6381 89.5788 46.6381 89.1662V82.9455C46.6381 81.8664 46.3208 80.3103 45.7805 79.6448C46.4784 79.1052 46.6381 78.2166 46.6381 76.947V75.0427V71.0437C46.6381 68.6316 45.2411 67.6478 42.6693 67.6478H38.3516C37.9709 67.6478 37.6527 67.9334 37.6527 68.346V78.0261H37.5575C37.1451 78.0261 36.8585 78.407 36.8585 78.7244V80.3747C36.8585 80.7556 37.1441 81.073 37.5575 81.073H37.6527V89.1662C37.6527 89.5788 38.0334 89.8644 38.3516 89.8644H40.0024C40.3831 89.8644 40.7013 89.5788 40.7013 89.1662V81.2634H40.7003ZM29.2879 68.346V85.7712C29.2879 86.8503 28.8438 87.0407 28.2083 87.0407H26.8748C26.2393 87.0407 25.8586 86.8503 25.8586 85.7712V68.346C25.8586 67.9334 25.4779 67.6478 25.1606 67.6478H23.5099C23.1292 67.6478 22.8119 67.9334 22.8119 68.346V86.5012C22.8119 88.9133 24.2088 90.0241 26.7806 90.0241H28.3679C30.9397 90.0241 32.3366 88.9133 32.3366 86.5012V68.346C32.3366 67.9334 31.9559 67.6478 31.6376 67.6478H29.9869C29.6062 67.6478 29.2879 67.9334 29.2879 68.346ZM8.76526 79.2956C8.76526 79.6765 9.05079 79.9939 9.46323 79.9939H9.55841V89.1662C9.55841 89.5788 9.94011 89.8644 10.2574 89.8644H11.9081C12.3205 89.8644 12.6071 89.5471 12.6071 89.1662V80.342C12.6071 80.1516 12.734 80.0246 12.9561 80.0246H15.8134C16.2258 80.0246 16.5123 79.6438 16.5123 79.3264V77.676C16.5123 77.2952 16.2268 76.9778 15.8134 76.9778H12.9561C12.7022 76.9778 12.6071 76.8826 12.6071 76.6287V71.0437C12.6071 70.8216 12.734 70.6946 12.9561 70.6946H16.7979C17.2103 70.6946 17.4958 70.3138 17.4958 69.9964V68.346C17.4958 67.9651 17.2103 67.6478 16.7979 67.6478H10.2574C9.87566 67.6478 9.55841 67.9334 9.55841 68.346V76.947H9.46323C9.05079 76.947 8.76526 77.3279 8.76526 77.6453V79.2956Z" fill="white"/>
<path d="M75.2459 98.5646C75.2459 98.5646 75.3867 98.5646 75.3867 98.7044V107.116C75.3867 107.299 75.5552 107.425 75.696 107.425H76.0757C76.2443 107.425 76.3851 107.299 76.3851 107.116V98.7183C76.3851 98.6063 76.4277 98.5497 76.5546 98.5497H77.6521C77.8345 98.5497 77.9614 98.3811 77.9614 98.2403V97.8892C77.9614 97.7206 77.8345 97.5797 77.6521 97.5797H74.0502C73.8678 97.5797 73.7409 97.7483 73.7409 97.8892V98.2552C73.7409 98.4238 73.8678 98.5646 74.0502 98.5646H75.2459ZM71.7432 105.4C71.7432 105.794 71.5736 106.497 70.603 106.526C69.7583 106.54 69.5481 106.104 69.5481 105.625V104.95C69.5481 104.753 69.45 104.64 69.2388 104.64H68.8442C68.6469 104.64 68.5349 104.809 68.5349 104.992V105.949C68.5349 106.82 69.337 107.496 70.4771 107.496H70.7309C71.9692 107.496 72.7564 106.595 72.7564 105.526V105.244C72.7564 104.12 72.0674 103.331 71.0125 102.121C70.0419 100.982 69.5352 100.321 69.5352 99.6318C69.5065 98.8304 70.0845 98.5487 70.6744 98.5487C71.645 98.5487 71.758 98.9703 71.758 99.4067V100.082C71.758 100.278 71.8562 100.392 72.0674 100.392H72.4471C72.6444 100.392 72.7564 100.223 72.7564 100.039V99.0833C72.7564 98.2105 71.9553 97.5073 70.8152 97.5073H70.5624C69.3241 97.5073 68.5359 98.2532 68.5359 99.5048V99.7855C68.5498 100.743 69.211 101.515 70.0131 102.472C70.8003 103.445 71.7432 104.135 71.7432 105.4ZM63.54 102.376C63.54 102.545 63.6669 102.686 63.8494 102.686H63.892V107.117C63.892 107.3 64.0605 107.426 64.2013 107.426H67.1003C67.2837 107.426 67.4096 107.258 67.4096 107.117V106.821C67.4096 106.653 67.2837 106.512 67.1003 106.512H65.046C64.933 106.512 64.8914 106.469 64.8914 106.343V102.897C64.8914 102.771 64.934 102.7 65.0887 102.7H66.6641C66.8475 102.7 66.9734 102.532 66.9734 102.391V102.025C66.9734 101.856 66.8475 101.716 66.6641 101.716H65.0738C64.9469 101.716 64.8904 101.66 64.8904 101.547V98.7193C64.8904 98.6211 64.9469 98.5646 65.045 98.5646H67.0993C67.2827 98.5646 67.4086 98.396 67.4086 98.2552V97.8892C67.4086 97.7206 67.2827 97.5797 67.0993 97.5797H64.2003C64.0318 97.5797 63.891 97.7067 63.891 97.8892V101.701H63.8484C63.666 101.701 63.539 101.869 63.539 102.01V102.376H63.54ZM59.3889 102.784C59.3889 102.727 59.4315 102.686 59.4871 102.686H60.9643C61.2459 102.686 61.6256 102.854 61.6256 103.332V105.963C61.6256 106.441 61.3153 106.525 61.0347 106.525H59.4871C59.4167 106.525 59.3889 106.497 59.3889 106.427V102.784ZM59.4028 98.6489C59.4028 98.5934 59.4315 98.5507 59.5009 98.5507H61.0069C61.2885 98.5507 61.5978 98.635 61.5978 99.1131V101.068C61.5978 101.546 61.2181 101.715 60.9365 101.715H59.5009C59.4454 101.715 59.4028 101.673 59.4028 101.616V98.6489ZM62.6249 99.0853C62.6249 98.0161 61.9914 97.5797 60.8523 97.5797H58.7137C58.5313 97.5797 58.4044 97.7067 58.3905 97.8753V101.715H58.334C58.1655 101.715 58.0386 101.869 58.0386 102.024V102.404C58.0386 102.573 58.1506 102.699 58.3479 102.713H58.3905V107.116C58.3905 107.299 58.5313 107.425 58.6999 107.425H60.8661C62.0063 107.425 62.6249 106.989 62.6249 105.921V102.981C62.6111 102.601 62.4703 102.39 62.1183 102.18C62.3999 101.969 62.6249 101.771 62.6249 101.308V99.0853Z" fill="white"/>
<path d="M81.944 118.187V121.365C81.944 121.549 82.1126 121.675 82.2533 121.675H82.633C82.8026 121.675 82.9434 121.548 82.9434 121.365V118.187L84.5188 112.223C84.5753 111.998 84.4761 111.829 84.2372 111.829H83.9269C83.7444 111.829 83.5749 111.913 83.5045 112.125L82.52 115.922C82.4913 116.021 82.4219 116.021 82.3931 115.922L81.4225 112.125C81.3521 111.913 81.2252 111.829 80.9863 111.829H80.676C80.5639 111.829 80.3528 111.941 80.4093 112.166L81.944 118.187ZM76.7657 112.814C76.7657 112.814 76.9065 112.814 76.9065 112.955V121.366C76.9065 121.55 77.0751 121.676 77.2168 121.676H77.5966C77.7661 121.676 77.9069 121.549 77.9069 121.366V112.969C77.9069 112.857 77.9485 112.8 78.0754 112.8H79.1729C79.3564 112.8 79.4833 112.632 79.4833 112.491V112.139C79.4833 111.97 79.3564 111.829 79.1729 111.829H75.5711C75.3876 111.829 75.2617 111.998 75.2617 112.139V112.505C75.2617 112.673 75.3876 112.814 75.5711 112.814H76.7657ZM73.3046 121.676H73.6844C73.8529 121.676 73.9937 121.549 73.9937 121.366V112.139C73.9937 111.956 73.8252 111.829 73.6844 111.829H73.3046C73.1361 111.829 72.9953 111.956 72.9953 112.139V121.366C72.9953 121.549 73.1639 121.676 73.3046 121.676ZM68.5765 121.676H71.4893C71.7144 121.676 71.7997 121.521 71.7997 121.366V120.987C71.7997 120.79 71.6866 120.677 71.4893 120.677H69.4628C69.3082 120.677 69.2655 120.648 69.2655 120.481V112.14C69.2655 111.957 69.097 111.83 68.9562 111.83H68.5765C68.408 111.83 68.2672 111.957 68.2672 112.14V121.367C68.2672 121.549 68.4357 121.676 68.5765 121.676ZM64.6375 114.009C64.6514 113.91 64.7922 113.91 64.8061 114.009L65.6359 118.412C65.6924 118.693 65.6081 118.707 65.3405 118.707H64.116C63.8345 118.707 63.778 118.707 63.8206 118.427L64.6375 114.009ZM66.8881 121.676C67.0427 121.676 67.1697 121.507 67.127 121.296L65.4108 112.111C65.3682 111.9 65.2839 111.83 65.0589 111.83H64.355C64.1299 111.83 64.0456 111.901 64.003 112.111L62.272 121.366C62.2293 121.564 62.3989 121.676 62.5397 121.676H62.9471C63.1018 121.676 63.2426 121.549 63.2713 121.366L63.5241 119.974C63.5807 119.693 63.6084 119.664 63.8474 119.664H65.5358C65.7896 119.664 65.8173 119.693 65.8738 119.974L66.1554 121.366C66.1832 121.55 66.3101 121.676 66.4647 121.676H66.8881ZM60.1344 112.139V120.213C60.1344 120.691 59.9371 120.775 59.6556 120.775H58.3608C58.0792 120.775 57.9106 120.691 57.9106 120.213V112.139C57.9106 111.956 57.7421 111.829 57.6003 111.829H57.2206C57.0521 111.829 56.9103 111.956 56.9103 112.139V120.185C56.9103 121.254 57.5299 121.732 58.6701 121.732H59.374C60.5132 121.732 61.1328 121.254 61.1328 120.185V112.139C61.1328 111.956 60.9643 111.829 60.8235 111.829H60.4438C60.2752 111.829 60.1344 111.956 60.1344 112.139ZM52.4241 113.249C52.4241 112.771 52.5926 112.687 52.8742 112.687H54.1967C54.4783 112.687 54.6468 112.771 54.6468 113.249V120.212C54.6468 120.69 54.4783 120.774 54.1967 120.774H52.8742C52.5926 120.774 52.4241 120.69 52.4241 120.212V113.249ZM55.3646 122.364C55.5471 122.223 55.5342 122.041 55.435 121.915L55.0553 121.465C55.435 121.212 55.6462 120.804 55.6462 120.185V113.278C55.6462 112.209 55.0266 111.759 53.8874 111.759H53.1835C52.0443 111.759 51.4247 112.209 51.4247 113.278V120.185C51.4247 121.254 52.0443 121.746 53.1835 121.746H53.8448L54.5765 122.618C54.6885 122.745 54.8719 122.773 55.0266 122.647L55.3646 122.364Z" fill="white"/>
<path d="M125.689 96.2725C122.642 101.952 118.781 107.13 114.261 111.65C102.422 123.485 86.0664 130.806 68.0015 130.806C49.9366 130.806 33.5809 123.485 21.7421 111.65C17.2222 107.13 13.3596 101.953 10.3129 96.2725H13.9346C16.6938 101.093 20.0805 105.509 23.9818 109.41C35.2465 120.672 50.811 127.639 68.0015 127.639C85.192 127.639 100.756 120.672 112.021 109.41C115.923 105.509 119.309 101.093 122.068 96.2725H125.689ZM68.0005 0C86.0654 0 102.421 7.32059 114.26 19.1559C125.367 30.2603 132.499 45.3388 133.338 62.0757H130.165C129.33 46.2136 122.554 31.9255 112.02 21.3944C100.755 10.1324 85.191 3.16587 68.0005 3.16587C50.81 3.16587 35.2455 10.1324 23.9808 21.3944C13.4468 31.9265 6.67036 46.2146 5.83458 62.0767H2.66199C3.50074 45.3398 10.6321 30.2603 21.7402 19.1569C33.5789 7.32059 49.9346 0 68.0005 0Z" fill="white"/>
</svg>
